<svg width="143" height="44" viewBox="0 0 143 44" fill="none" xmlns="http://www.w3.org/2000/svg">
<g clip-path="url(#clip0_124_112)">
<path fill-rule="evenodd" clip-rule="evenodd" d="M89.0621 33.8293C80.8053 39.908 68.8375 43.1513 58.5336 43.1513C44.0857 43.1513 31.0789 37.8138 21.2388 28.9366C20.4657 28.2385 21.1584 27.2872 22.0861 27.8308C32.7055 34.0022 45.836 37.715 59.3994 37.715C68.5469 37.715 78.6096 35.8246 87.8622 31.9019C89.26 31.3088 90.4289 32.8161 89.0621 33.8293Z" fill="#999999"/>
<path fill-rule="evenodd" clip-rule="evenodd" d="M92.4946 29.9066C91.4431 28.5598 85.5181 29.2703 82.8586 29.5853C82.0483 29.6842 81.9247 28.9799 82.6545 28.4734C87.3735 25.156 95.1169 26.1135 96.0199 27.2255C96.9229 28.3436 95.7849 36.0965 91.3504 39.7969C90.67 40.3652 90.0206 40.0625 90.3237 39.3089C91.3194 36.8255 93.5522 31.2595 92.4946 29.9066Z" fill="#999999"/>
<path fill-rule="evenodd" clip-rule="evenodd" d="M83.0441 5.0541V1.82939C83.0441 1.34136 83.4152 1.01395 83.8605 1.01395H98.3146C98.7784 1.01395 99.1495 1.34754 99.1495 1.82939V4.59078C99.1434 5.0541 98.7537 5.6595 98.061 6.61703L90.5711 17.2981C93.3543 17.2302 96.2921 17.644 98.8156 19.0649C99.3846 19.3861 99.5392 19.8556 99.5825 20.319V23.7599C99.5825 24.2294 99.0629 24.7792 98.5187 24.495C94.0718 22.1661 88.1652 21.9128 83.2482 24.5197C82.7473 24.7915 82.2216 24.2479 82.2216 23.7784V20.5105C82.2216 19.9854 82.2277 19.0896 82.7534 18.2927L91.4308 5.86336H83.8791C83.4152 5.86336 83.0441 5.53595 83.0441 5.0541Z" fill="#999999"/>
<path fill-rule="evenodd" clip-rule="evenodd" d="M30.3181 25.1744H25.9206C25.5 25.1435 25.1661 24.8285 25.1351 24.4269V1.88489C25.1351 1.43392 25.5124 1.07562 25.9825 1.07562H30.083C30.5098 1.09414 30.85 1.42157 30.8809 1.82929V4.77601H30.9613C32.0313 1.92813 34.0413 0.599945 36.7503 0.599945C39.5026 0.599945 41.222 1.92813 42.4589 4.77601C43.5227 1.92813 45.941 0.599945 48.5325 0.599945C50.3756 0.599945 52.3919 1.35979 53.6226 3.06481C55.0142 4.96133 54.7297 7.71654 54.7297 10.132L54.7235 24.359C54.7235 24.81 54.3463 25.1744 53.8762 25.1744H49.485C49.0458 25.1435 48.6933 24.7914 48.6933 24.359V12.4115C48.6933 11.4602 48.7799 9.08797 48.5696 8.18604C48.2418 6.67253 47.2584 6.24627 45.9843 6.24627C44.9205 6.24627 43.8073 6.95669 43.3558 8.09337C42.9043 9.23005 42.9476 11.1327 42.9476 12.4115V24.359C42.9476 24.81 42.5703 25.1744 42.1002 25.1744H37.709C37.2637 25.1435 36.9173 24.7914 36.9173 24.359L36.9111 12.4115C36.9111 9.89723 37.3255 6.19685 34.2022 6.19685C31.0417 6.19685 31.1654 9.80456 31.1654 12.4115V24.359C31.1654 24.81 30.7881 25.1744 30.3181 25.1744" fill="#999999"/>
<path fill-rule="evenodd" clip-rule="evenodd" d="M111.594 0.599945C118.119 0.599945 121.65 6.19685 121.65 13.3134C121.65 20.1891 117.747 25.6439 111.594 25.6439C105.186 25.6439 101.698 20.047 101.698 13.0725C101.698 6.05476 105.229 0.599945 111.594 0.599945ZM111.631 5.20226C108.39 5.20226 108.186 9.61306 108.186 12.3621C108.186 15.1173 108.142 20.9984 111.594 20.9984C115.001 20.9984 115.162 16.254 115.162 13.3629C115.162 11.4602 115.082 9.18681 114.507 7.38295C114.012 5.81384 113.028 5.20226 111.631 5.20226Z" fill="#999999"/>
<path fill-rule="evenodd" clip-rule="evenodd" d="M130.111 25.1744H125.732C125.293 25.1435 124.941 24.7914 124.941 24.359L124.934 1.81075C124.971 1.39686 125.336 1.07562 125.782 1.07562H129.857C130.241 1.09414 130.556 1.35361 130.643 1.70574V5.15283H130.723C131.954 2.07021 133.68 0.599945 136.716 0.599945C138.689 0.599945 140.613 1.31037 141.85 3.25631C143 5.06017 143 8.09337 143 10.2741V24.464C142.951 24.8594 142.586 25.1744 142.153 25.1744H137.743C137.341 25.1435 137.007 24.847 136.964 24.464V12.22C136.964 9.75515 137.248 6.14743 134.212 6.14743C133.142 6.14743 132.158 6.86403 131.67 7.95129C131.051 9.32889 130.971 10.7003 130.971 12.22V24.359C130.965 24.81 130.581 25.1744 130.111 25.1744" fill="#999999"/>
<path fill-rule="evenodd" clip-rule="evenodd" d="M71.5215 14.4069C71.5215 16.1181 71.5648 17.5451 70.6989 19.0648C70 20.3003 68.8868 21.0602 67.656 21.0602C65.9675 21.0602 64.9779 19.7752 64.9779 17.8787C64.9779 14.1351 68.3363 13.4555 71.5215 13.4555V14.4069ZM75.9561 25.1127C75.6654 25.3721 75.2448 25.3907 74.917 25.2177C73.4574 24.0069 73.1914 23.4447 72.3936 22.2895C69.9815 24.7482 68.2683 25.4833 65.1449 25.4833C61.4402 25.4833 58.5642 23.2038 58.5642 18.6385C58.5642 15.0741 60.4939 12.6463 63.2523 11.4602C65.6397 10.41 68.9733 10.2247 71.5215 9.9343V9.36596C71.5215 8.32195 71.6019 7.08643 70.9834 6.1845C70.4515 5.37523 69.4248 5.04164 68.5157 5.04164C66.8396 5.04164 65.349 5.90033 64.9841 7.67948C64.9099 8.07485 64.6192 8.46403 64.2172 8.48257L59.9558 8.02542C59.5971 7.94512 59.1951 7.65476 59.3002 7.10496C60.2774 1.94049 64.9532 0.383728 69.1341 0.383728C71.2741 0.383728 74.0697 0.952069 75.7581 2.5706C77.8981 4.56596 77.694 7.22851 77.694 10.1258V16.9706C77.694 19.0277 78.5475 19.9297 79.3515 21.0416C79.6299 21.437 79.6917 21.9127 79.333 22.2092C78.4362 22.9567 76.8405 24.3467 75.9622 25.125L75.956 25.1127" fill="#999999"/>
<path fill-rule="evenodd" clip-rule="evenodd" d="M13.8723 14.407C13.8723 16.1182 13.9156 17.5452 13.0497 19.0649C12.3509 20.3004 11.2438 21.0603 10.0068 21.0603C8.31832 21.0603 7.33493 19.7753 7.33493 17.8788C7.33493 14.1352 10.6933 13.4556 13.8723 13.4556V14.407ZM18.3069 25.1128C18.0162 25.3722 17.5956 25.3908 17.2678 25.2178C15.8082 24.007 15.5484 23.4448 14.7444 22.2896C12.3323 24.7483 10.6253 25.4834 7.49573 25.4834C3.79718 25.4834 0.915039 23.2039 0.915039 18.6386C0.915039 15.0742 2.8509 12.6464 5.60317 11.4603C7.99052 10.4101 11.3242 10.2247 13.8723 9.9344V9.36606C13.8723 8.32204 13.9527 7.08652 13.3404 6.18459C12.8023 5.37532 11.7757 5.04173 10.8727 5.04173C9.19658 5.04173 7.69984 5.90042 7.33493 7.67957C7.26071 8.07494 6.97002 8.46413 6.57419 8.48266L2.30663 8.02551C1.94791 7.94521 1.55208 7.65486 1.65104 7.10505C2.63443 1.94058 7.304 0.38382 11.485 0.38382C13.6249 0.38382 16.4205 0.95216 18.109 2.57069C20.2489 4.56606 20.0448 7.2286 20.0448 10.1259V16.9707C20.0448 19.0278 20.8983 19.9298 21.7024 21.0417C21.9869 21.4371 22.0487 21.9128 21.69 22.2093C20.7932 22.9568 19.1975 24.3467 18.3192 25.1251L18.3069 25.1127" fill="#999999"/>
</g>
<defs>
<clipPath id="clip0_124_112">
<rect width="142.085" height="42.7676" fill="white" transform="translate(0.915039 0.383789)"/>
</clipPath>
</defs>
</svg>
