<svg width="190" height="59" viewBox="0 0 190 59" fill="none" xmlns="http://www.w3.org/2000/svg">
<path d="M0 10.0417C0 4.49581 4.49581 0 10.0417 0H179.958C185.504 0 190 4.49581 190 10.0417V48.9583C190 54.5042 185.504 59 179.958 59H10.0417C4.49581 59 0 54.5042 0 48.9583V10.0417Z" fill="url(#paint0_linear_124_86)"/>
<path d="M63.8101 31.1477V29.9386H58.6294V31.3331H62.2214V31.5625C62.2214 33.6984 60.6681 35.1634 58.4087 35.1634C55.814 35.1634 54.2077 33.1776 54.2077 29.9739C54.2077 26.8231 55.7875 24.9344 58.4087 24.9344C60.2003 24.9344 61.533 25.9141 62.0626 27.6351H63.7306C63.254 25.1021 61.1623 23.4694 58.4087 23.4694C54.8432 23.4694 52.575 26.0024 52.575 29.9827C52.575 34.0337 54.852 36.6285 58.4087 36.6285C61.8066 36.6285 63.8101 34.5897 63.8101 31.1477ZM69.2908 28.4118C70.7382 28.4118 71.7002 29.5062 71.7355 31.0418H66.749C66.8461 29.515 67.8522 28.4118 69.2908 28.4118ZM71.7002 33.7866C71.4443 34.6515 70.5882 35.2428 69.4232 35.2428C67.7728 35.2428 66.7402 34.0867 66.7402 32.3304V32.2421H73.3241V31.6596C73.3241 28.8795 71.7973 27.0791 69.3173 27.0791C66.7843 27.0791 65.1604 29.0119 65.1604 31.8626C65.1604 34.7486 66.7578 36.5755 69.3879 36.5755C71.3913 36.5755 72.9446 35.3929 73.2094 33.7866H71.7002ZM75.3717 25.0227V27.238H74.0037V28.5H75.3717V34.0337C75.3717 35.7989 76.0248 36.4873 77.7105 36.4873C78.0724 36.4873 78.496 36.4608 78.6813 36.4167V35.1281C78.5754 35.1458 78.2224 35.1722 78.0459 35.1722C77.2604 35.1722 76.9074 34.7927 76.9074 33.9543V28.5H78.6902V27.238H76.9074V25.0227H75.3717ZM83.6678 32.9129C83.8179 35.1634 85.6889 36.6285 88.3896 36.6285C91.3197 36.6285 93.1555 35.1722 93.1555 32.8423C93.1555 31.0153 92.0875 30.0004 89.4487 29.3385L88.116 28.9854C86.3862 28.5353 85.6801 27.9617 85.6801 26.9997C85.6801 25.7552 86.8274 24.8991 88.4778 24.8991C90.1371 24.8991 91.2403 25.7376 91.3815 27.1056H92.9701C92.8995 24.9698 91.0638 23.4694 88.5308 23.4694C85.8831 23.4694 84.0297 24.9521 84.0297 27.0703C84.0297 28.8001 85.0711 29.8327 87.4188 30.4329L89.0515 30.8565C90.7637 31.2978 91.5139 31.9597 91.5139 33.0364C91.5139 34.2897 90.2606 35.1987 88.5396 35.1987C86.7215 35.1987 85.4153 34.2897 85.2653 32.9129H83.6678ZM95.2648 25.0227V27.238H93.8968V28.5H95.2648V34.0337C95.2648 35.7989 95.9179 36.4873 97.6036 36.4873C97.9655 36.4873 98.3891 36.4608 98.5744 36.4167V35.1281C98.4685 35.1458 98.1155 35.1722 97.939 35.1722C97.1535 35.1722 96.8005 34.7927 96.8005 33.9543V28.5H98.5832V27.238H96.8005V25.0227H95.2648ZM103.076 35.2693C101.972 35.2693 101.24 34.6957 101.24 33.8219C101.24 32.957 101.946 32.4098 103.181 32.3304L105.635 32.1803V32.9305C105.635 34.2544 104.523 35.2693 103.076 35.2693ZM102.731 36.5755C103.967 36.5755 105.132 35.8871 105.679 34.8369H105.714V36.4167H107.171V30.071C107.171 28.2441 105.811 27.0791 103.658 27.0791C101.487 27.0791 100.128 28.297 100.022 29.8857H101.505C101.699 28.9854 102.44 28.4294 103.623 28.4294C104.894 28.4294 105.635 29.1002 105.635 30.221V30.9889L103.005 31.1389C100.887 31.2625 99.6776 32.2509 99.6776 33.8219C99.6776 35.4723 100.904 36.5755 102.731 36.5755ZM109.121 36.4167H110.657V30.6976C110.657 29.4002 111.433 28.5442 112.625 28.5442C112.996 28.5442 113.322 28.5883 113.446 28.6324V27.1409C113.322 27.1232 113.093 27.0791 112.828 27.0791C111.751 27.0791 110.904 27.7234 110.604 28.7383H110.569V27.238H109.121V36.4167ZM115.193 25.0227V27.238H113.825V28.5H115.193V34.0337C115.193 35.7989 115.846 36.4873 117.532 36.4873C117.894 36.4873 118.317 36.4608 118.503 36.4167V35.1281C118.397 35.1458 118.044 35.1722 117.867 35.1722C117.082 35.1722 116.729 34.7927 116.729 33.9543V28.5H118.512V27.238H116.729V25.0227H115.193ZM123.569 28.4118C125.016 28.4118 125.978 29.5062 126.013 31.0418H121.027C121.124 29.515 122.13 28.4118 123.569 28.4118ZM125.978 33.7866C125.722 34.6515 124.866 35.2428 123.701 35.2428C122.051 35.2428 121.018 34.0867 121.018 32.3304V32.2421H127.602V31.6596C127.602 28.8795 126.075 27.0791 123.595 27.0791C121.062 27.0791 119.438 29.0119 119.438 31.8626C119.438 34.7486 121.036 36.5755 123.666 36.5755C125.669 36.5755 127.223 35.3929 127.487 33.7866H125.978ZM132.633 36.5755C133.957 36.5755 135.007 35.9224 135.598 34.8633H135.625V36.4167H137.09V23.6812H135.554V28.7295H135.519C134.972 27.7234 133.912 27.0791 132.597 27.0791C130.285 27.0791 128.705 28.9501 128.705 31.8273C128.705 34.7045 130.294 36.5755 132.633 36.5755ZM132.924 28.4294C134.504 28.4294 135.563 29.7797 135.563 31.8273C135.563 33.8837 134.504 35.2252 132.924 35.2252C131.3 35.2252 130.276 33.9102 130.276 31.8273C130.276 29.7533 131.3 28.4294 132.924 28.4294Z" fill="white"/>
<defs>
<linearGradient id="paint0_linear_124_86" x1="95" y1="0" x2="95" y2="59" gradientUnits="userSpaceOnUse">
<stop stop-color="#FF2C3E"/>
<stop offset="1" stop-color="#FFC371"/>
</linearGradient>
</defs>
</svg>
