<svg width="139" height="52" viewBox="0 0 139 52" fill="none" xmlns="http://www.w3.org/2000/svg">
<g clip-path="url(#clip0_124_95)" filter="url(#filter0_d_124_95)">
<path d="M130.279 26.5208L133.895 28.9312C132.722 30.6598 129.915 33.6253 125.062 33.6253C119.036 33.6253 114.548 28.9629 114.548 23.0319C114.548 16.7203 119.083 12.4385 124.555 12.4385C130.057 12.4385 132.753 16.8154 133.626 19.1783L134.101 20.3836L119.924 26.2512C121.002 28.3762 122.683 29.4546 125.062 29.4546C127.441 29.4546 129.09 28.281 130.279 26.5208ZM119.163 22.6989L128.63 18.766C128.107 17.4498 126.553 16.5141 124.697 16.5141C122.334 16.5141 119.052 18.6074 119.163 22.6989Z" fill="#999999"/>
<path d="M107.713 1.63895H112.28V32.658H107.713V1.63895Z" fill="#999999"/>
<path d="M100.513 13.2632H104.922V32.103C104.922 39.9212 100.307 43.1404 94.8517 43.1404C89.7136 43.1404 86.6212 39.6833 85.4635 36.8764L89.5074 35.1954C90.2369 36.9239 91.9972 38.9697 94.8517 38.9697C98.3564 38.9697 100.513 36.7971 100.513 32.7373V31.2149H100.355C99.3079 32.4836 97.3098 33.6254 94.7724 33.6254C89.4757 33.6254 84.623 29.0106 84.623 23.0637C84.623 17.0851 89.4757 12.4227 94.7724 12.4227C97.2939 12.4227 99.3079 13.5487 100.355 14.7856H100.513V13.2632ZM100.83 23.0637C100.83 19.3211 98.3406 16.5935 95.1689 16.5935C91.9655 16.5935 89.2696 19.3211 89.2696 23.0637C89.2696 26.7587 91.9655 29.4388 95.1689 29.4388C98.3406 29.4546 100.83 26.7587 100.83 23.0637Z" fill="#999999"/>
<path d="M59.5511 22.9844C59.5511 29.0899 54.7936 33.5778 48.9577 33.5778C43.1218 33.5778 38.3643 29.074 38.3643 22.9844C38.3643 16.8472 43.1218 12.3751 48.9577 12.3751C54.7936 12.3751 59.5511 16.8472 59.5511 22.9844ZM54.9204 22.9844C54.9204 19.1784 52.1611 16.5617 48.9577 16.5617C45.7543 16.5617 42.9949 19.1784 42.9949 22.9844C42.9949 26.7587 45.7543 29.407 48.9577 29.407C52.1611 29.407 54.9204 26.7587 54.9204 22.9844Z" fill="#999999"/>
<path d="M82.6885 23.0319C82.6885 29.1374 77.931 33.6253 72.0951 33.6253C66.2592 33.6253 61.5017 29.1374 61.5017 23.0319C61.5017 16.8947 66.2592 12.4385 72.0951 12.4385C77.931 12.4385 82.6885 16.8789 82.6885 23.0319ZM78.042 23.0319C78.042 19.2259 75.2827 16.6093 72.0793 16.6093C68.8759 16.6093 66.1165 19.2259 66.1165 23.0319C66.1165 26.8062 68.8759 29.4546 72.0793 29.4546C75.2985 29.4546 78.042 26.7904 78.042 23.0319Z" fill="#999999"/>
<path d="M20.9518 28.9788C14.3071 28.9788 9.10555 23.6187 9.10555 16.974C9.10555 10.3294 14.3071 4.96923 20.9518 4.96923C24.5358 4.96923 27.1524 6.38062 29.0871 8.18848L32.2747 5.00094C29.5787 2.41603 25.9789 0.449585 20.9518 0.449585C11.8491 0.449585 4.18945 7.87131 4.18945 16.974C4.18945 26.0767 11.8491 33.4985 20.9518 33.4985C25.8679 33.4985 29.5787 31.8809 32.4808 28.8678C35.4622 25.8865 36.382 21.6998 36.382 18.3061C36.382 17.2436 36.2551 16.1494 36.1124 15.3406H20.9518V19.7493H31.7513C31.4342 22.5086 30.562 24.3958 29.2774 25.6803C27.7233 27.2503 25.2653 28.9788 20.9518 28.9788Z" fill="#999999"/>
</g>
<defs>
<filter id="filter0_d_124_95" x="0" y="0.383789" width="138.339" height="50.7676" filterUnits="userSpaceOnUse" color-interpolation-filters="sRGB">
<feFlood flood-opacity="0" result="BackgroundImageFix"/>
<feColorMatrix in="SourceAlpha" type="matrix" values="0 0 0 0 0 0 0 0 0 0 0 0 0 0 0 0 0 0 127 0" result="hardAlpha"/>
<feOffset dy="4"/>
<feGaussianBlur stdDeviation="2"/>
<feComposite in2="hardAlpha" operator="out"/>
<feColorMatrix type="matrix" values="0 0 0 0 0 0 0 0 0 0 0 0 0 0 0 0 0 0 0.25 0"/>
<feBlend mode="normal" in2="BackgroundImageFix" result="effect1_dropShadow_124_95"/>
<feBlend mode="normal" in="SourceGraphic" in2="effect1_dropShadow_124_95" result="shape"/>
</filter>
<clipPath id="clip0_124_95">
<rect width="130.339" height="42.7676" fill="white" transform="translate(4 0.383789)"/>
</clipPath>
</defs>
</svg>
