<svg width="555" height="413" viewBox="0 0 555 413" fill="none" xmlns="http://www.w3.org/2000/svg">
<g clip-path="url(#clip0_129_54)">
<path d="M511.302 100.213C448.311 12.5573 315.245 -22.9995 184.378 15.296C115.193 35.5417 48.4855 76.1069 15.427 154.654C-43.6686 295.066 80.4101 339.91 161.544 354.203C200.776 361.114 237.726 372.723 271.491 388.528C332.238 416.964 439.763 442.161 520.845 323.713C579.613 237.862 553.261 158.6 511.302 100.213Z" fill="#F2F2F2"/>
<path d="M146.099 117.555C145.923 116.162 145.567 114.797 145.039 113.496C144.972 113.25 144.854 113.021 144.693 112.822C144.532 112.624 144.332 112.462 144.105 112.346C143.802 112.267 143.483 112.263 143.178 112.335L138.42 113.063C138.022 113.082 137.641 113.23 137.335 113.485C136.715 114.137 137.325 115.186 137.306 116.085C137.285 117.097 136.386 117.917 135.412 118.189C134.418 118.39 133.392 118.377 132.403 118.151L125.75 117.118C127.709 116.492 129.453 115.328 130.783 113.759C131.659 112.722 132.124 110.785 130.859 110.294C130.483 110.191 130.091 110.159 129.703 110.201C126.689 110.225 124.317 107.708 121.495 106.648C119.689 106.013 117.728 105.966 115.894 106.513C114.059 107.06 112.444 108.173 111.28 109.693L114.825 109.864C115.158 109.845 115.489 109.933 115.769 110.115C116.546 110.754 115.58 111.979 115.689 112.979C115.831 114.277 117.555 114.554 118.855 114.685C120.154 114.817 121.803 115.873 121.178 117.019C114.646 119.269 108 112.622 101.141 113.44C99.4046 113.647 97.7653 114.329 96.0703 114.758C85.7163 117.378 75.012 110.388 64.4347 111.868C62.0833 112.269 59.7722 112.879 57.5289 113.69C56.0893 114.162 54.5878 114.673 53.5418 115.769C52.4958 116.866 52.0977 118.74 53.0886 119.886C50.3574 120.111 47.6079 119.85 44.968 119.115C45.6819 119.511 46.2758 120.093 46.6873 120.799C47.0989 121.504 47.3129 122.307 47.307 123.124C43.0425 123.82 38.891 125.085 34.964 126.888C35.6969 128.106 36.553 129.247 37.5187 130.291L32.12 133.759C33.9439 134.219 34.887 136.706 33.8263 138.259C35.7175 137.418 36.8896 135.241 38.9119 134.8C40.2368 134.511 41.585 135.053 42.8418 135.562C44.0987 136.071 45.4801 136.565 46.7813 136.183C48.0824 135.801 49.0421 134.114 48.2153 133.039C53.7767 131.416 59.5243 130.518 65.3156 130.367C65.7624 130.311 66.2155 130.397 66.6107 130.613C67.3646 131.136 67.1662 132.266 67.1256 133.182C67.085 134.099 67.7994 135.304 68.6187 134.89C67.6548 135.726 68.4788 137.3 69.4035 138.179C70.3282 139.058 71.4428 140.27 70.8767 141.414C70.7289 141.712 70.4783 141.951 70.3361 142.252C69.9165 143.141 70.5828 144.177 71.3687 144.767C72.1546 145.357 73.1172 145.77 73.6631 146.587C74.2091 147.404 73.9611 148.835 72.9849 148.949L70.2103 145.426C69.2623 146.409 68.6124 147.64 68.3359 148.978C71.2782 151.383 71.7208 156.279 69.2575 159.173C67.9987 160.652 66.2086 161.55 64.6462 162.704C63.0838 163.857 61.6381 165.5 61.6421 167.442C61.6489 170.797 61.3747 173.914 62.632 177.025C64.9504 182.761 67.6271 188.345 70.6463 193.745C71.4392 195.163 72.4638 196.718 74.07 196.962C72.0401 192.02 70.2129 187.002 68.5882 181.907C69.6464 181.911 70.8692 181.995 71.4896 182.852C72.0032 183.562 71.8929 184.527 72.0525 185.389C72.2555 186.223 72.5941 187.019 73.0546 187.744L82.7477 205.011C83.5513 206.442 84.473 207.979 86.0087 208.558C86.9906 208.929 88.1266 208.859 89.0303 209.393C89.7387 209.811 90.2158 210.553 90.9379 210.947C92.9798 212.061 95.8193 209.925 97.7275 211.255C98.2731 211.635 98.6202 212.239 99.123 212.674C100.885 214.201 103.776 213.18 105.811 214.318C107.122 215.052 107.802 216.519 108.501 217.849C110.253 221.18 113.087 224.444 116.842 224.709C118.021 224.793 119.226 224.569 120.379 224.831C121.531 225.094 122.666 226.1 122.481 227.267C122.164 229.269 123.153 231.461 122.887 233.471C122.403 237.131 117.212 238.739 116.766 242.404C116.668 243.207 116.821 244.035 116.63 244.82C116.396 245.783 115.673 246.567 115.416 247.524C114.929 249.337 116.228 251.141 117.655 252.361C119.083 253.581 120.785 254.633 121.565 256.341C122.39 258.146 121.985 260.251 122.253 262.217C122.839 266.509 126.546 269.692 130.362 271.744C131.524 272.369 132.773 272.974 133.525 274.058C134.507 275.474 134.409 277.34 134.737 279.031C135.54 283.174 139.028 286.587 139.127 290.805C139.197 293.803 137.53 296.523 136.535 299.352C135.601 302.062 135.264 304.942 135.545 307.795C135.825 310.648 136.718 313.406 138.162 315.883C138.907 317.14 139.798 318.326 140.325 319.689C141.265 322.122 140.96 324.887 141.827 327.347C142.973 330.599 146.122 333.286 145.82 336.721C147.25 339.69 150.407 341.148 153.581 342.032L159.271 343.616C160.36 343.919 161.499 344.225 162.608 344.005C163.717 343.785 164.776 342.864 164.747 341.734C161.957 341.105 159.078 340.436 156.778 338.735C154.478 337.035 152.902 334.008 153.775 331.284C154.18 330.021 155.04 328.563 154.222 327.519C153.753 326.922 152.897 326.766 152.368 326.22C151.544 325.37 151.827 323.942 152.42 322.916C153.012 321.891 153.869 320.974 154.108 319.815C154.229 319.166 154.148 318.495 153.877 317.893C153.606 317.292 153.157 316.787 152.591 316.448C153.646 316.049 154.605 315.434 155.407 314.641C156.148 313.795 156.49 312.491 155.907 311.53C157.637 311.749 159.679 311.857 160.815 310.533C161.722 309.477 161.66 307.897 161.301 306.551C160.943 305.205 160.337 303.898 160.318 302.506C164.309 302.695 168.309 302.56 172.277 302.101C171.703 300.168 170.399 298.534 168.641 297.547C170.439 297.243 172.076 295.091 172.644 293.359C173.212 291.626 173.067 289.74 172.716 287.951C172.582 287.49 172.563 287.003 172.663 286.534C172.865 285.889 173.499 285.495 174.085 285.159L183.007 280.035C183.539 279.768 184.022 279.412 184.433 278.981C185.368 277.883 185.23 276.226 184.751 274.866C184.272 273.506 183.506 272.226 183.321 270.796C182.77 266.519 187.349 263.45 188.894 259.424C189.5 257.844 189.624 256.127 189.741 254.438C189.867 252.625 189.877 250.519 188.484 249.35C187.15 248.23 185.064 248.48 183.668 247.438C182.387 246.483 181.945 244.627 180.547 243.856C179.276 243.155 177.684 243.601 176.271 243.271C173.783 242.691 172.218 239.824 169.677 239.559C168.244 239.409 166.622 240.11 165.447 239.275C164.412 238.539 164.37 237.061 164.173 235.806C163.828 233.857 162.893 232.059 161.495 230.657C160.098 229.255 158.304 228.314 156.355 227.963C154.877 227.726 153.268 227.816 152.011 227.004C150.738 226.181 150.154 224.642 149.154 223.503C147.542 221.667 145.004 221.015 142.626 220.456L132.954 218.182C131.237 217.778 129.023 217.564 128.102 219.068C127.829 219.641 127.636 220.248 127.528 220.873C127.183 222.004 126.488 222.996 125.544 223.707C124.599 224.418 123.453 224.811 122.271 224.83C121.461 223.447 120.148 222.431 118.606 221.994C117.625 221.72 116.575 221.69 115.64 221.288C115.13 221.039 114.677 220.689 114.307 220.259C113.938 219.829 113.66 219.328 113.491 218.787C113.322 218.246 113.264 217.677 113.323 217.113C113.382 216.549 113.555 216.003 113.832 215.508C114.389 214.515 114.605 213.367 114.445 212.239C114.284 211.112 113.758 210.068 112.946 209.27C111.301 207.793 108.921 207.437 106.716 207.584C106.138 206.324 107.104 204.902 108.145 203.986C109.186 203.07 110.449 202.169 110.676 200.801C111.033 198.65 108.287 197.016 106.203 197.657C104.118 198.299 102.788 200.323 101.908 202.319C101.404 203.464 100.975 204.67 100.179 205.636C99.383 206.601 98.1012 207.293 96.8888 206.983C95.1724 206.544 94.5095 204.505 94.1297 202.774C93.62 200.453 93.1074 198.099 93.2142 195.725C93.321 193.35 94.1214 190.912 95.8723 189.305C98.7255 186.685 103.102 186.942 106.953 187.36C106.043 186.335 106.268 184.607 107.242 183.643C107.755 183.186 108.373 182.862 109.04 182.698C109.708 182.534 110.405 182.535 111.072 182.702C112.232 182.943 113.278 183.568 114.04 184.476C115.134 185.81 115.445 187.611 116.272 189.126C117.099 190.64 118.959 191.931 120.481 191.119C121.796 190.417 122.005 188.594 121.677 187.14C121.35 185.686 120.655 184.272 120.774 182.787C121 179.952 123.938 178.246 126.531 177.078C129.125 175.911 132.094 174.341 132.505 171.527C132.519 170.976 132.622 170.431 132.812 169.914C133.1 169.457 133.499 169.081 133.973 168.822C141.541 163.82 149.235 158.758 157.884 156.025C158.334 155.883 158.387 156.041 158.846 155.93C159.488 155.559 159.062 154.533 158.447 154.119C157.832 153.706 157.009 153.389 156.853 152.664C156.738 152.131 157.052 151.608 157.134 151.069C157.334 149.745 155.75 148.523 154.52 149.052C153.825 148.132 155.2 147.063 156.312 146.757C159.65 145.838 163.077 145.278 166.534 145.087C166.932 145.023 167.341 145.093 167.697 145.285C168.277 145.687 168.203 146.609 167.792 147.184C167.38 147.758 166.74 148.118 166.227 148.604C165.667 149.15 165.267 149.839 165.072 150.596C164.877 151.353 164.893 152.15 165.12 152.899C166.924 153.817 168.886 154.762 170.885 154.438C172.884 154.115 174.658 151.869 173.719 150.075C172.844 148.405 170.216 148.028 169.764 146.198C169.235 144.055 172.269 142.148 171.585 140.049C171.286 139.13 170.369 138.588 169.666 137.925C168.836 137.111 168.271 136.065 168.046 134.924C167.821 133.783 167.946 132.601 168.405 131.532C167.259 131.734 166.082 131.658 164.973 131.31C163.863 130.963 162.852 130.355 162.026 129.536C160.501 127.997 159.283 125.568 157.117 125.637C155.129 125.7 153.416 128.019 151.557 127.312C151.1 127.138 150.618 126.783 150.175 126.991C150.029 127.085 149.907 127.211 149.818 127.359C149.729 127.508 149.674 127.674 149.659 127.847C149.186 130.106 149.999 132.679 148.768 134.631C147.428 136.755 144.33 137.049 142.706 138.964C141.824 140.004 141.483 141.405 140.673 142.501C139.862 143.597 138.142 144.294 137.17 143.339C137.648 142.356 137.778 141.241 137.54 140.174C137.302 139.108 136.709 138.154 135.859 137.469C134.956 136.88 133.982 136.406 132.962 136.06C131.821 135.577 130.736 134.972 129.726 134.256C129.219 133.951 128.808 133.51 128.538 132.985C128.324 132.326 128.352 131.613 128.619 130.974C129.112 129.561 129.982 128.309 131.135 127.353C132.287 126.398 133.679 125.775 135.16 125.553C136.455 125.377 137.961 125.439 138.818 124.452C139.272 123.93 139.51 123.141 140.168 122.929C140.589 122.845 141.026 122.898 141.413 123.083L146.246 124.784C146.785 125.027 147.379 125.125 147.968 125.068C148.26 125.029 148.526 124.881 148.713 124.653C148.9 124.426 148.995 124.136 148.977 123.842C148.823 123.039 147.588 122.654 147.7 121.845C147.763 121.582 147.904 121.345 148.104 121.165C149.849 119.308 151.981 117.861 154.35 116.925C156.719 115.99 159.266 115.589 161.808 115.753C162.418 116.755 161.453 117.941 160.65 118.797C159.848 119.652 159.203 121.18 160.173 121.838C160.571 122.041 161.014 122.141 161.46 122.128C162.65 122.289 163.806 122.64 164.885 123.167C166.555 123.893 168.193 124.689 169.799 125.552C169.657 124.493 169.522 123.378 169.923 122.388C170.324 121.398 171.465 120.621 172.461 121.007C173.421 121.378 173.914 122.65 174.937 122.766C176.301 122.922 176.84 120.906 176.27 119.656C175.7 118.407 174.571 117.361 174.477 115.99C174.413 115.066 174.765 113.92 174.027 113.36C173.764 113.192 173.466 113.087 173.156 113.055L154.72 109.662C153.625 109.461 152.044 109.615 151.995 110.727C151.968 111.348 152.522 111.962 152.277 112.533C152.015 113.142 151.154 113.086 150.526 113.302C149.553 113.636 149.065 114.791 149.158 115.816C149.33 116.834 149.724 117.802 150.313 118.65C149.114 118.148 147.298 118.056 146.099 117.555Z" fill="#393849"/>
<path d="M131.389 101.905C130.227 101.52 128.974 101.502 127.801 101.854C126.628 102.205 125.591 102.909 124.832 103.869C124.528 104.269 124.273 104.82 124.527 105.252C124.892 105.873 125.82 105.628 126.504 105.406C127.51 105.047 128.605 105.02 129.627 105.331C130.27 105.552 130.845 105.942 131.491 106.154C131.805 106.286 132.149 106.329 132.486 106.28C132.823 106.231 133.14 106.091 133.404 105.875C133.847 105.423 133.874 104.721 133.875 104.088C133.906 103.876 133.889 103.66 133.826 103.456C133.762 103.251 133.654 103.064 133.509 102.907C133.251 102.757 132.96 102.671 132.662 102.656C131.994 102.532 131.39 102.18 130.955 101.659" fill="#393849"/>
<path d="M138.037 100.054C137.777 100.04 137.517 100.093 137.284 100.208C137.05 100.323 136.85 100.497 136.702 100.711C136.555 100.926 136.465 101.175 136.442 101.435C136.418 101.694 136.462 101.956 136.569 102.193C137.368 102.411 138.203 102.465 139.023 102.353C139.433 102.29 139.814 102.106 140.119 101.827C140.424 101.547 140.64 101.183 140.739 100.78C139.773 100.956 138.776 100.766 137.943 100.246" fill="#393849"/>
<path d="M160.34 96.9633C158.165 97.4256 156.053 98.1432 154.047 99.1011C154.993 99.4647 155.797 100.122 156.34 100.977C156.884 101.833 157.139 102.84 157.067 103.85C156.982 104.238 156.992 104.641 157.095 105.025C157.327 105.585 157.996 105.795 158.585 105.939C159.643 106.261 160.748 106.402 161.853 106.356C162.405 106.327 162.942 106.161 163.414 105.872C163.886 105.584 164.279 105.182 164.557 104.703C164.717 104.249 164.905 103.805 165.12 103.374C166.531 101.224 170.724 103.823 172.239 101.746C172.773 101.014 172.724 99.9123 173.42 99.3324C173.78 99.0797 174.197 98.9206 174.634 98.8691C177.681 98.2637 180.76 97.8253 183.855 97.5559C185.322 97.4283 187.233 96.9016 187.245 95.4296C181.721 94.3446 175.993 95.1152 170.952 97.6214C169.136 98.5311 166.734 100.445 164.985 99.2386C164.33 98.7871 164.362 97.5711 163.46 97.0634C162.539 96.5442 161.319 96.7554 160.34 96.9633Z" fill="#393849"/>
<path d="M178.406 100.342L180.999 100.84C180.521 100.819 180.045 100.9 179.601 101.077C179.158 101.255 178.757 101.525 178.426 101.869C178.095 102.214 177.842 102.625 177.682 103.076C177.523 103.526 177.461 104.005 177.502 104.481C179.93 105.293 182.578 104.503 185.136 104.611C187.694 104.719 190.67 106.546 190.233 109.069C190.101 109.832 189.66 110.594 189.89 111.333C190.05 111.852 190.507 112.219 190.765 112.697C191.303 113.691 190.873 114.949 190.194 115.854C189.516 116.758 188.603 117.479 188.007 118.44C186.525 120.83 187.367 123.92 188.25 126.589C188.505 127.598 188.977 128.54 189.632 129.348C190.939 130.739 193.071 130.86 194.98 130.888C196.369 130.908 197.961 130.839 198.839 129.763C199.986 128.358 199.184 126.165 199.94 124.516C200.625 123.018 202.373 122.375 203.956 121.919C206.857 121.084 209.813 120.374 212.555 119.113C215.96 117.547 219.142 115.106 222.884 114.904C223.934 114.848 225.01 114.972 226.022 114.684C227.033 114.396 227.994 113.522 227.917 112.473C227.852 111.577 227.094 110.919 226.501 110.244C225.909 109.568 225.444 108.53 225.988 107.815L235.798 105.983C235.103 104.088 234.561 101.592 236.159 100.359C236.735 99.9135 237.507 99.7356 237.998 99.1976C238.835 98.2806 238.414 96.7009 237.448 95.921C236.482 95.1411 235.177 94.9601 233.94 94.8573C229.638 94.5001 225.312 94.7362 221.003 94.9724C212.578 95.4342 204.154 95.896 195.729 96.3577C194.033 96.4507 192.075 96.3087 190.52 96.8872C189.203 97.3771 188.267 98.2762 186.761 98.5921C183.981 99.1753 180.921 98.7806 178.406 100.342Z" fill="#393849"/>
<path d="M224.86 120.838C224.596 120.796 224.326 120.858 224.105 121.009C223.96 121.17 223.873 121.375 223.86 121.591C223.692 122.546 223.892 123.529 224.418 124.343C224.686 124.742 225.056 125.062 225.49 125.27C225.924 125.478 226.405 125.566 226.884 125.525C228.052 125.376 228.912 124.38 229.986 123.894C231.64 123.145 238.666 121.978 233.806 119.353C232.131 118.448 231.049 119.247 229.729 119.842C228.227 120.611 226.543 120.955 224.86 120.838Z" fill="#393849"/>
<path d="M267.431 98.8592C266.863 99.0911 266.388 99.5043 266.081 100.034C265.939 100.304 265.906 100.617 265.989 100.91C266.071 101.203 266.264 101.453 266.525 101.608C266.737 101.684 266.962 101.72 267.187 101.713L269.495 101.782C270.475 101.811 271.7 102.02 271.963 102.964C272.159 103.666 271.721 104.567 272.249 105.069C272.476 105.244 272.749 105.35 273.034 105.375C273.794 105.57 274.588 105.596 275.359 105.45C277.038 104.999 276.156 103.975 276.685 103.062C277.494 101.666 277.354 102.511 278.78 101.711C279.833 101.12 281.193 100.048 280.314 98.542C278.786 95.9229 269.686 97.734 267.431 98.8592Z" fill="#393849"/>
<path d="M312.977 97.5425L311.637 97.7213C308.616 98.1245 305.577 98.5314 302.667 99.4388C303.926 99.9369 305.248 100.261 306.595 100.403C307.337 100.439 308.073 100.544 308.796 100.716C310.081 101.098 311.377 102.086 312.618 101.58C313.388 101.266 313.64 100.465 314.277 100.04C314.718 99.7464 316.388 99.2715 316.575 98.9754C318.085 96.5814 314.138 97.3876 312.977 97.5425Z" fill="#393849"/>
<path d="M318.861 103.633C317.071 104.633 315.411 105.849 313.916 107.254C313.287 107.846 312.644 108.582 312.701 109.444C312.777 110.59 313.997 111.255 315.055 111.702L319.338 113.516C319.858 112.783 319.382 111.772 318.845 111.053C318.308 110.333 317.67 109.5 317.907 108.634C318.178 107.646 319.383 107.309 320.394 107.138C322.04 106.861 326.482 106.883 325.949 104.23C325.32 101.103 320.514 102.709 318.861 103.633Z" fill="#393849"/>
<path d="M318 280.578C317.592 281.759 317.553 283.15 318.259 284.18C319.05 285.337 320.634 285.768 322.005 285.475C323.37 285.112 324.586 284.33 325.483 283.239C326.303 282.325 326.978 281.29 327.483 280.171C328.189 278.427 328.687 276.606 328.966 274.745L330.296 267.762C330.593 266.202 330.582 261.417 327.714 262.976C326.93 263.402 325.116 266.764 324.294 267.718C322.814 269.436 322.619 271.103 321.839 273.185C320.863 275.793 318.902 277.966 318 280.578Z" fill="#393849"/>
<path d="M469.5 316.313C468.561 315.946 467.65 315.513 466.774 315.015C465.896 317.43 465.429 319.976 465.392 322.546L471.815 318.911C472.781 318.365 473.876 317.605 473.855 316.495C473.864 316.358 473.836 316.221 473.773 316.099C473.711 315.977 473.617 315.873 473.5 315.8C473.358 315.743 473.202 315.725 473.05 315.747C472.098 315.827 471.229 316.295 470.331 316.621C469.433 316.947 468.382 317.119 467.558 316.636" fill="#393849"/>
<path d="M503.38 318.47C502.675 318.662 501.987 318.909 501.321 319.21C499.847 319.959 498.844 321.384 497.518 322.371C496.249 323.317 494.721 323.836 493.221 324.34C492.78 324.73 492.982 325.516 493.461 325.858C493.976 326.151 494.567 326.284 495.158 326.24C496.716 326.274 498.357 326.289 499.722 325.536C500.491 325.037 501.211 324.466 501.871 323.831C503.467 322.499 505.383 321.621 507.28 320.772C507.971 320.511 508.609 320.129 509.166 319.644C510.358 318.47 510.442 316.658 508.723 316.259C507.334 315.936 504.702 318.043 503.38 318.47Z" fill="#393849"/>
<path d="M518.35 308.692C518.427 307.884 518.32 307.069 518.036 306.308C517.752 305.548 517.299 304.862 516.711 304.302C516.693 305.919 516.644 307.641 515.735 308.978C515.087 309.931 514.071 310.574 513.361 311.482C512.651 312.389 512.336 313.828 513.169 314.624C513.701 315.029 514.349 315.252 515.018 315.261C516.675 315.456 518.594 315.565 519.756 314.367C520.391 313.714 520.699 312.746 521.473 312.265C521.762 312.144 522.019 311.96 522.227 311.726C522.546 311.218 522.038 310.549 521.467 310.366C520.895 310.183 520.266 310.269 519.691 310.095C519.117 309.921 518.59 309.275 518.885 308.752" fill="#393849"/>
<path d="M491.744 249.413C490.875 249.625 489.974 249.678 489.086 249.57C487.61 249.299 486.462 248.187 485.27 247.275C482.439 245.119 478.996 243.916 475.438 243.839C472.201 243.778 468.933 244.655 465.754 244.043C465.962 245.199 466.95 246.065 468.005 246.58C469.06 247.095 470.224 247.354 471.284 247.859C472.982 248.675 474.328 250.076 475.076 251.804C475.418 252.601 475.632 253.468 476.149 254.164C477.206 255.586 479.21 255.898 480.978 255.782C483.283 255.63 485.69 254.967 487.835 255.826C489.475 256.483 490.649 257.919 492.019 259.035C493.389 260.152 495.318 260.98 496.891 260.175C495.257 259.646 493.835 258.609 492.833 257.214C491.83 255.82 491.299 254.142 491.318 252.425C492.861 252.567 497.304 252.512 497.065 249.891C496.862 247.669 493.069 249.174 491.744 249.413Z" fill="#393849"/>
<path d="M471.563 267.487C471.837 265.985 473.335 264.659 472.869 263.205C472.546 262.199 471.38 261.703 470.324 261.678C469.269 261.653 468.232 261.967 467.176 261.997C466.489 261.961 465.8 261.97 465.114 262.026C463.019 262.371 461.727 264.567 459.752 265.348C458.551 265.823 457.203 265.732 455.954 266.061C453.119 266.806 451.325 269.485 449.343 271.644C446.142 275.118 441.97 277.551 437.37 278.627C435.758 279 434.025 279.239 432.744 280.286C431.048 281.672 430.63 284.049 430.253 286.207C429.21 292.167 427.616 298.018 425.492 303.684L432.223 304.543C433.503 304.706 434.829 304.866 436.062 304.487C436.958 304.149 437.807 303.697 438.587 303.142C441.585 301.281 444.94 300.07 448.436 299.587C450.199 299.345 452.047 299.301 453.701 299.956C455.355 300.611 456.774 302.097 456.913 303.871C457.628 303.648 458.391 303.624 459.119 303.801C459.847 303.978 460.513 304.35 461.046 304.876C462.1 305.95 462.79 307.328 463.019 308.815C463.197 309.736 463.374 310.84 464.228 311.226C464.926 311.541 465.725 311.202 466.488 311.141C469.076 310.934 471.224 313.951 473.767 313.432C476.495 312.874 477.165 308.789 479.826 307.97C481.355 307.5 483.499 308.072 484.231 306.65C484.876 305.397 483.589 303.95 483.722 302.547C483.885 300.819 485.923 300.086 487.495 299.349C492.912 296.807 495.482 289.516 492.857 284.139C491.302 280.953 488.242 278.445 487.677 274.945C487.242 272.252 488.303 269.112 486.586 266.993C485.713 265.914 484.234 265.319 483.715 264.033C483.387 263.223 483.519 262.304 483.343 261.448C483.167 260.593 482.42 259.698 481.576 259.92C479.123 260.564 478.341 268.139 477.028 269.98C475.032 272.778 470.935 270.935 471.563 267.487Z" fill="#393849"/>
<path d="M426.236 252.276C425.398 252.041 424.483 251.809 423.68 252.145C422.877 252.481 422.408 253.66 423.053 254.245C428.094 254.048 433.167 253.853 438.166 254.538C443.925 255.327 449.625 257.281 455.41 256.706C452.106 255.731 448.747 254.952 445.351 254.372L439.687 253.29C438.168 252.972 436.633 252.735 435.089 252.579C431.858 252.313 429.413 253.166 426.236 252.276Z" fill="#393849"/>
<path d="M431.283 234.716C430.865 234.681 430.347 234.651 430.13 235.011C429.923 235.355 430.16 235.809 430.049 236.195C429.897 236.722 429.207 236.856 428.663 236.784C428.12 236.713 427.532 236.541 427.051 236.803C426.806 236.97 426.623 237.211 426.528 237.491C426.432 237.771 426.43 238.075 426.522 238.356C426.719 238.914 427.037 239.422 427.454 239.842C428.166 240.739 428.978 241.553 429.873 242.268C431.606 243.547 433.953 244.163 435.045 246.02C435.199 246.38 435.435 246.699 435.735 246.95C436.259 247.282 436.943 247.029 437.507 246.771L439.484 245.868C439.84 245.74 440.158 245.523 440.408 245.239C440.86 244.626 440.583 243.755 440.204 243.094C439.824 242.434 439.339 241.751 439.42 240.994C439.565 239.644 441.301 239.127 442.015 237.973C442.734 236.808 442.266 235.308 442.349 233.942C442.446 232.345 443.449 230.267 441.834 229.073C440.462 228.059 439.15 228.996 438.164 230.116C436.086 232.478 435.104 235.035 431.283 234.716Z" fill="#393849"/>
<path d="M443.286 210.847C443.961 212.14 445.368 212.911 446.105 214.17C446.902 215.534 446.812 217.297 447.677 218.62C448.565 219.977 450.353 220.697 450.851 222.24C451.394 223.925 450.161 225.973 451.144 227.445C451.327 227.686 451.559 227.886 451.824 228.032C452.088 228.179 452.381 228.269 452.682 228.296C452.983 228.324 453.287 228.289 453.574 228.193C453.861 228.097 454.125 227.943 454.349 227.74C454.764 227.288 454.986 226.693 454.967 226.08C454.949 225.467 454.693 224.886 454.252 224.46C453.67 223.929 452.834 223.699 452.347 223.079C452.094 222.721 451.926 222.311 451.854 221.878C451.589 220.63 451.632 219.337 451.978 218.11C452.108 217.798 452.141 217.455 452.073 217.124C451.854 216.488 450.992 216.443 450.388 216.147C449.015 215.477 449.048 213.539 449.288 212.03C449.128 213.035 445.549 211.326 445.174 210.757C444.43 209.626 444.835 207.445 444.688 206.196C443.08 206.971 442.461 209.267 443.286 210.847Z" fill="#393849"/>
<path d="M407.231 230.735C406.571 229.995 405.576 229.222 404.69 229.668C404.014 230.008 403.828 230.943 404.093 231.651C404.416 232.34 404.913 232.932 405.534 233.369C407.38 234.891 409.367 236.265 410.977 238.034C413.858 241.201 415.385 245.473 418.518 248.39C419.148 249.066 419.982 249.518 420.893 249.675C421.806 249.76 422.831 249.176 422.936 248.265C423.022 247.515 422.499 246.843 421.988 246.287C420.771 244.963 419.438 243.744 418.289 242.361C417.758 241.83 417.425 241.133 417.344 240.386C417.338 239.641 418.017 238.862 418.739 239.046C417.861 238.822 417.21 237.36 415.922 237.085C414.845 236.855 414.585 237.521 413.303 236.972C410.86 235.924 408.942 232.651 407.231 230.735Z" fill="#393849"/>
<path d="M464.652 158.732C463.951 158.524 463.261 158.278 462.587 157.995C460.773 157.45 458.372 158.784 458.614 160.663C458.774 161.911 459.936 162.753 460.578 163.835C461.529 165.441 461.276 167.478 460.776 169.276C460.653 169.833 460.42 170.36 460.089 170.824C459.627 171.315 459.075 171.712 458.463 171.994C456.013 173.368 453.852 175.204 452.1 177.4C451.91 177.603 451.777 177.853 451.716 178.124C451.629 178.759 452.267 179.221 452.628 179.75C453.428 180.925 452.85 182.507 452.929 183.927C452.917 184.128 452.956 184.328 453.043 184.509C453.13 184.691 453.262 184.847 453.426 184.963C453.909 185.208 454.481 184.792 454.743 184.318C455.611 182.745 454.957 180.22 456.586 179.461C456.894 179.318 457.267 179.257 457.473 178.987C457.799 178.557 457.484 177.922 457.649 177.409C457.898 176.638 458.951 176.603 459.76 176.638C461.153 176.696 462.546 176.51 463.875 176.09C464.397 175.966 464.87 175.691 465.238 175.301C465.724 174.693 465.681 173.829 465.584 173.057C465.097 169.205 463.877 165.483 461.99 162.09C463.421 162.273 464.977 162.431 466.212 161.685C466.903 161.268 467.732 160.019 467.389 159.169C466.847 157.826 465.868 158.957 464.652 158.732Z" fill="#393849"/>
<path d="M281.233 179.914C281.404 180.833 281.573 181.799 281.272 182.684C280.971 183.568 280.024 184.307 279.13 184.036C278.436 183.826 278.036 183.128 277.543 182.596C274.803 179.639 268.622 181.351 266.93 177.692C266.239 176.199 266.708 174.409 266.237 172.833C265.94 171.922 265.349 171.135 264.556 170.597C263.763 170.058 262.814 169.798 261.857 169.858C260.985 169.984 260.136 170.237 259.337 170.61C253.986 172.753 248.368 174.158 242.638 174.786C241.55 174.853 240.472 175.049 239.43 175.37C237.077 176.223 235.47 178.404 234.326 180.63C233.182 182.856 232.337 185.266 230.803 187.243C229.191 189.321 226.932 190.777 224.825 192.351C224.014 192.874 223.338 193.582 222.853 194.418C222.397 195.355 222.422 196.446 222.458 197.489L222.888 210.151C222.944 211.779 223.013 213.466 223.742 214.924C224.653 216.744 226.451 217.936 227.698 219.543C228.971 221.196 229.634 223.237 229.575 225.322C229.549 226.16 229.466 227.152 230.118 227.678C230.515 227.936 230.98 228.069 231.453 228.062L248.581 229.464C251.594 229.711 254.933 230.116 256.901 232.411C257.829 233.495 258.575 235.053 259.997 235.169C260.607 235.219 261.2 234.968 261.81 234.92C263.349 234.798 264.701 235.966 265.555 237.253C266.846 239.214 267.433 241.557 267.217 243.895C267.077 245.363 266.622 246.79 266.524 248.261C266.151 253.859 270.896 258.722 270.988 264.332C271.043 267.632 269.476 270.715 267.949 273.64C270.414 277.374 268.395 282.346 269.377 286.711C270.308 290.853 273.761 294.095 274.621 298.251C275.015 300.154 275.038 302.496 276.716 303.476C277.452 303.835 278.268 303.998 279.086 303.95C284.018 304.009 288.894 302.899 293.315 300.711C295.389 299.682 297.54 298.144 297.902 295.857C298.194 294.012 297.259 291.948 298.211 290.341C299.333 288.447 302.208 288.597 303.859 287.141C306.537 284.779 304.449 280.273 305.534 276.871C306.509 273.812 309.868 272.187 311.532 269.442C312.187 268.262 312.657 266.988 312.926 265.665C313.689 262.502 314.163 259.278 314.344 256.03C314.389 254.056 314.534 252.087 314.78 250.128C316.575 238.978 327.598 231.512 331.176 220.801C331.518 219.778 331.679 218.415 330.769 217.837C330.229 217.579 329.617 217.515 329.036 217.655L321.14 218.651C320.159 218.774 319.12 218.89 318.219 218.483C317.318 218.075 316.673 216.936 317.151 216.07C318.492 213.641 315.733 210.572 314.508 208.082C311.207 201.379 307.277 195.005 302.77 189.046C302.481 188.74 302.3 188.348 302.255 187.929L304.496 188.004C303.739 185.289 302.491 182.319 299.854 181.326C298.368 180.767 296.723 180.96 295.137 181.047C290.596 181.295 285.728 180.609 281.233 179.914Z" fill="#393849"/>
<path d="M295.141 118.747C296.329 120.009 297.661 121.347 299.38 121.567C302.417 121.955 304.6 118.815 305.991 116.087C306.042 116.783 306.363 117.43 306.884 117.893C307.406 118.356 308.088 118.596 308.784 118.564C309.534 118.438 310.249 118.158 310.886 117.743C316.903 114.454 323.642 112.712 330.498 112.673C330.433 112.153 330.561 111.628 330.86 111.198C331.159 110.768 331.606 110.464 332.116 110.344C333.51 110.068 334.766 111.273 335.438 112.525C336.111 113.777 336.53 115.228 337.598 116.165C338.667 117.102 340.735 117.062 341.157 115.705C341.563 114.402 340.205 113.291 339.078 112.522C337.95 111.754 336.761 110.333 337.521 109.199C343.282 107.924 349.078 106.644 354.973 106.39C355.977 106.425 356.977 106.253 357.911 105.884C358.81 105.443 359.525 104.442 359.283 103.47C357.997 103.772 356.649 103.685 355.413 103.218C354.176 102.752 353.107 101.928 352.341 100.851C360.52 100.176 369.22 99.6009 376.469 103.45C377.339 105.317 372.906 106.871 374.092 108.555C374.47 109.092 375.228 109.155 375.885 109.168C380.923 109.261 385.989 109.353 390.97 108.592C392.79 108.314 394.628 107.922 396.456 108.147C399.499 108.523 402.103 110.554 405.097 111.216C406.316 111.485 407.682 111.494 408.71 110.786C409.737 110.077 410.179 108.463 409.337 107.541C412.156 104.778 416.836 105.463 420.555 106.786C424.275 108.108 427.798 110.242 431.735 110.537C434.558 110.748 437.42 109.989 440.209 110.472C441.962 110.775 443.594 111.555 445.307 112.034C448.547 112.94 451.975 112.749 455.339 112.792C463.923 112.908 472.413 114.595 480.389 117.77C481.427 118.108 482.377 118.669 483.174 119.415C483.916 120.21 484.294 121.445 483.796 122.411L475.554 121.207C476.33 122.735 478.339 122.996 479.971 123.523C481.602 124.051 483.294 125.852 482.313 127.259C480.546 126.696 478.944 128.463 478.051 130.09C477.158 131.716 476.07 133.663 474.217 133.762C472.558 133.851 470.552 132.438 469.471 133.7C470.965 135.584 472.244 137.629 473.285 139.797C474.353 142.022 475.114 144.827 473.67 146.829C473.443 147.187 473.098 147.454 472.695 147.585C471.516 147.883 470.75 146.441 469.904 145.566C468.839 144.465 467.227 144.152 465.784 143.636C464.341 143.119 462.821 142.102 462.708 140.574C462.638 139.623 463.14 138.739 463.51 137.86C464.131 136.378 464.403 134.773 464.304 133.169C464.223 131.879 463.862 130.537 462.935 129.636C462.008 128.734 460.409 128.448 459.414 129.274C458.95 129.659 458.578 130.275 457.975 130.298C456.91 130.339 456.092 128.482 455.235 129.116C455.336 129.791 455.196 130.481 454.84 131.063C452.283 133.287 448.355 132.346 445.059 133.132C443.491 133.58 441.99 134.236 440.596 135.081C440.074 135.304 439.631 135.676 439.321 136.151C438.909 136.951 439.363 137.975 440.088 138.507C440.857 138.978 441.721 139.273 442.618 139.37C446.637 140.131 450.714 141.31 453.887 143.891C457.06 146.472 459.14 150.739 458.136 154.704L450.211 147.131C450.512 150.311 450.683 153.499 450.724 156.696C450.775 157.32 450.689 157.948 450.473 158.536C449.908 159.784 448.376 160.203 447.035 160.479C446.661 160.55 446.307 160.699 445.996 160.916C445.684 161.134 445.422 161.415 445.227 161.741C445.032 162.066 444.908 162.43 444.863 162.807C444.818 163.184 444.854 163.567 444.967 163.929C445.444 165.483 446.633 166.695 447.721 167.902C448.81 169.109 449.881 170.481 450.023 172.1C450.166 173.719 448.944 175.544 447.323 175.432C446.093 175.346 445.181 174.246 444.657 173.131C444.133 172.016 443.821 170.774 443.033 169.826C440.649 166.959 435.293 168.187 433.157 165.13C432.612 165.748 432.235 166.494 432.06 167.299C431.885 168.103 431.919 168.939 432.158 169.727C433.152 169.105 434.512 169.683 435.259 170.587C436.005 171.491 436.358 172.65 436.944 173.665C437.735 175.035 438.994 176.25 439.105 177.828C439.075 178.424 439.085 179.022 439.135 179.618C439.331 180.574 440.139 181.261 440.7 182.06C442.003 183.92 441.939 186.475 441.099 188.585C440.258 190.695 438.748 192.458 437.253 194.168C434.641 197.153 431.975 200.122 428.878 202.601C427.995 203.309 427.052 204.005 426.501 204.994C425.951 205.983 425.923 207.371 426.769 208.124C426.163 208.154 425.078 208.452 424.473 208.482C424.26 206.055 424.214 203.615 424.335 201.182C421.947 200.035 419.375 203.106 419.684 205.737C419.992 208.368 421.895 210.479 423.25 212.755C424.24 214.42 424.977 216.361 424.646 218.27C424.315 220.179 422.611 221.939 420.682 221.771C417.612 221.503 416.328 217.096 413.288 216.592C413.02 216.529 412.739 216.557 412.488 216.672C412.037 216.919 411.959 217.523 411.933 218.037C411.809 220.56 411.701 223.184 412.686 225.51C414.127 228.913 417.85 231.772 417.069 235.384C412.862 233.428 410.675 228.711 409.682 224.18C408.689 219.649 408.524 214.892 406.743 210.608C405.392 212.341 402.551 210.908 401.316 209.091C400.145 207.368 399.424 205.375 398.288 203.629C397.152 201.882 395.412 200.319 393.331 200.223C391.149 200.122 389.257 201.619 387.593 203.034C386.225 204.197 384.82 205.406 384.02 207.014C382.856 209.354 383.161 212.113 383.104 214.726C383.044 217.551 382.445 220.531 380.52 222.599C378.595 224.667 375.041 225.387 372.917 223.524C371.809 222.551 371.272 221.097 370.794 219.701C368.489 212.975 366.57 206.122 365.045 199.177C364.688 200.763 363.296 202.806 361.966 201.872C361.668 201.621 361.426 201.309 361.257 200.958C358.777 196.754 354.184 194.233 349.543 192.721C344.902 191.209 340.019 190.504 335.429 188.842C332.857 187.911 330.401 186.687 328.108 185.195C327.524 186.054 327.182 187.055 327.12 188.092C327.058 189.129 327.278 190.163 327.756 191.085C328.774 192.888 331.078 193.931 333.05 193.301C334.069 192.975 334.93 192.268 335.941 191.918C336.952 191.569 338.309 191.74 338.751 192.715C339.175 193.647 338.535 194.775 338.852 195.749C339.336 197.232 341.572 197.346 342.354 198.695C342.936 199.699 342.457 201.033 341.626 201.843C340.796 202.653 339.687 203.097 338.673 203.661C335.382 205.491 333.042 208.615 330.166 211.045C327.291 213.475 323.233 215.25 319.806 213.691C320.623 209.554 315.695 206.517 314.788 202.398C314.49 201.043 314.645 199.603 314.219 198.282C313.602 196.37 311.905 195.055 310.513 193.606C308.825 191.829 307.51 189.732 306.645 187.438C305.78 185.144 305.384 182.701 305.479 180.252C305.554 178.55 305.867 176.82 305.479 175.161C305.091 173.502 303.718 171.897 302.016 171.972C298.129 172.144 293.231 172.433 291.192 169.119C290.464 167.936 290.147 166.204 291.2 165.298C291.942 164.659 293.038 164.719 294.013 164.815L302.772 165.676C304.82 165.878 307.034 166.044 308.792 164.973C310.55 163.902 311.312 161.06 309.684 159.8C308.495 158.879 306.364 158.929 306.018 157.465C305.73 156.246 307.08 154.863 306.351 153.844C305.828 153.114 304.654 153.316 303.942 153.864C303.23 154.412 302.713 155.213 301.917 155.627C300.519 156.355 298.849 155.662 297.346 155.192C295.842 154.721 293.826 154.681 293.097 156.078C292.281 157.64 293.82 159.686 293.011 161.251C291.941 163.321 288.316 162.143 286.813 163.923C285.088 165.965 287.987 169.01 287.405 171.62C286.663 171.987 285.837 172.156 285.01 172.11C284.183 172.063 283.381 171.803 282.685 171.354C281.999 170.888 281.453 170.245 281.104 169.493C280.755 168.742 280.617 167.909 280.703 167.085C280.847 165.912 281.459 164.713 281.049 163.604C280.718 162.707 279.817 162.174 278.98 161.711L270.469 157.008C269.679 158.474 270.678 160.291 271.927 161.392C273.177 162.493 274.742 163.322 275.562 164.771C276.082 165.775 276.198 166.94 275.888 168.026C275.578 169.113 274.864 170.041 273.893 170.619C273.772 170.703 273.633 170.76 273.488 170.785C273.342 170.811 273.192 170.804 273.05 170.767C272.914 170.687 272.795 170.581 272.701 170.454C272.607 170.328 272.54 170.184 272.502 170.031C271.001 166.188 268.746 162.399 265.141 160.391C261.536 158.383 256.357 158.796 253.993 162.178C253.431 162.981 253.055 163.897 252.566 164.746C249.967 169.258 244.396 171.395 239.191 171.255C238.682 171.283 238.176 171.164 237.732 170.912C236.891 170.331 236.929 169.099 237.058 168.084L237.604 163.78C237.714 162.916 237.873 161.961 238.557 161.421C239.521 160.661 240.912 161.141 242.14 161.123C243.07 161.08 243.965 160.751 244.702 160.182C245.439 159.613 245.984 158.831 246.262 157.942C246.51 157.045 246.508 156.096 246.257 155.199C246.006 154.303 245.515 153.491 244.837 152.853C244.274 152.324 243.519 151.66 243.816 150.948C243.934 150.751 244.095 150.582 244.286 150.453C244.476 150.325 244.693 150.24 244.92 150.204C247.126 149.563 249.457 149.396 251.626 148.64C253.794 147.884 255.898 146.338 256.411 144.099C256.569 143.413 256.641 142.582 257.257 142.242C257.566 142.111 257.898 142.044 258.234 142.042C259.41 141.875 260.48 141.274 261.235 140.356C261.989 139.439 262.373 138.273 262.311 137.087C263.351 136.36 264.807 136.895 265.812 137.667C266.818 138.44 267.706 139.46 268.929 139.793C271.21 140.414 273.413 138.395 275.776 138.386C276.77 138.382 277.799 138.733 278.734 138.396C279.682 138.055 280.248 137.111 280.975 136.414C281.703 135.717 282.979 135.292 283.651 136.043L283.079 131.806C284.231 132.097 285.431 132.138 286.601 131.927C287.77 131.716 288.88 131.257 289.857 130.581L282.465 128.083C282.207 128.019 281.97 127.892 281.773 127.713C281.236 127.135 281.77 126.233 282.207 125.575C283.252 124.001 283.428 121.409 281.709 120.625C280.535 120.09 279.188 120.732 278.062 121.36L272.666 124.369C272.495 125.394 273.749 125.976 274.526 126.666C274.996 127.084 275.329 127.635 275.481 128.245C275.632 128.856 275.596 129.498 275.376 130.088C275.156 130.677 274.763 131.186 274.248 131.548C273.734 131.91 273.122 132.108 272.492 132.115C272.848 132.577 273.095 133.113 273.215 133.683C273.335 134.254 273.325 134.844 273.186 135.41L269.556 135.671C269.149 135.753 268.725 135.67 268.379 135.441C267.99 135.096 268.043 134.492 267.953 133.98C267.736 132.746 266.527 131.881 265.294 131.659C264.06 131.437 262.798 131.722 261.577 132.002C261.058 132.189 260.488 132.176 259.979 131.965C259.687 131.776 259.465 131.495 259.347 131.168C258.811 129.869 259.312 128.343 260.172 127.233C261.032 126.122 262.209 125.31 263.267 124.386C265.796 122.167 267.654 119.285 268.631 116.066C270.629 115.229 272.698 114.091 274.697 113.254C277.778 111.694 281.233 111.025 284.674 111.321L291.441 111.45C293.445 111.489 295.503 111.538 297.356 112.301C299.209 113.065 300.837 114.718 300.965 116.718C301.003 116.944 300.984 117.177 300.908 117.393C300.832 117.61 300.702 117.804 300.531 117.957C300.269 118.1 299.973 118.167 299.675 118.15C297.806 118.216 297.01 118.681 295.141 118.747Z" fill="#393849"/>
<path d="M241.196 139.958C241.461 139.707 241.651 139.389 241.746 139.038C241.841 138.686 241.838 138.315 241.736 137.966C241.093 137.718 240.393 137.654 239.715 137.782C239.037 137.91 238.409 138.224 237.9 138.69C237.499 139.096 237.154 139.553 236.873 140.049C235.983 141.5 235.197 143.233 235.712 144.855C235.754 145.032 235.831 145.198 235.938 145.345C236.046 145.492 236.181 145.616 236.337 145.709C236.568 145.802 236.817 145.841 237.065 145.823C238.045 145.822 239.024 145.762 239.996 145.643C240.593 145.57 241.287 145.401 241.518 144.846C241.821 144.115 241.087 143.289 241.301 142.527C241.442 142.187 241.655 141.881 241.926 141.632C242.061 141.506 242.164 141.351 242.228 141.178C242.292 141.006 242.315 140.821 242.295 140.638C242.209 140.281 241.662 140.078 241.465 140.388" fill="#393849"/>
<path d="M246.277 133.371C245.406 133.172 244.509 133.115 243.621 133.205C243.424 133.199 243.229 133.243 243.055 133.333C242.885 133.458 242.763 133.636 242.706 133.838C242.518 134.441 242.564 135.091 242.835 135.661C243.106 136.231 243.581 136.678 244.167 136.913C244.486 136.986 244.791 137.109 245.073 137.277C245.824 137.86 245.345 139.051 245.487 139.991C245.647 141.047 246.668 141.933 246.481 142.984C246.334 143.812 245.449 144.468 245.592 145.297C245.741 146.165 246.842 146.426 247.721 146.495C248.23 146.584 248.753 146.524 249.229 146.323C249.706 145.997 250.045 145.506 250.181 144.944C250.54 143.874 250.691 142.745 250.626 141.618C250.622 141.105 250.493 140.601 250.251 140.15C249.986 139.792 249.693 139.456 249.374 139.146C247.692 137.189 249.463 134.269 246.277 133.371Z" fill="#393849"/>
<path opacity="0.8" d="M467.531 286.689C467.531 286.689 338.663 212.717 283.183 226.732C283.183 226.732 165.606 239.386 151.98 267.223C151.98 267.223 114.604 150.424 100.978 146.531" stroke="#6C63FF" stroke-width="0.943391" stroke-miterlimit="10"/>
<path opacity="0.8" d="M151.98 267.223C173.587 209.602 368.252 145.752 368.252 145.752C340.61 152.76 283.184 226.732 283.184 226.732C283.184 226.732 161.713 138.355 100.978 146.531C100.978 146.531 368.447 155.291 467.531 286.689" stroke="#6C63FF" stroke-width="0.943391" stroke-miterlimit="10"/>
<path d="M100.978 152.176C104.095 152.176 106.623 149.648 106.623 146.531C106.623 143.413 104.095 140.885 100.978 140.885C97.8598 140.885 95.3323 143.413 95.3323 146.531C95.3323 149.648 97.8598 152.176 100.978 152.176Z" fill="#6161E8"/>
<path d="M151.98 272.868C155.097 272.868 157.625 270.341 157.625 267.223C157.625 264.105 155.097 261.577 151.98 261.577C148.862 261.577 146.334 264.105 146.334 267.223C146.334 270.341 148.862 272.868 151.98 272.868Z" fill="#6161E8"/>
<path d="M368.252 151.397C371.37 151.397 373.897 148.87 373.897 145.752C373.897 142.634 371.37 140.107 368.252 140.107C365.134 140.107 362.607 142.634 362.607 145.752C362.607 148.87 365.134 151.397 368.252 151.397Z" fill="#6161E8"/>
<path d="M467.531 292.334C470.649 292.334 473.176 289.807 473.176 286.689C473.176 283.571 470.649 281.044 467.531 281.044C464.413 281.044 461.885 283.571 461.885 286.689C461.885 289.807 464.413 292.334 467.531 292.334Z" fill="#6161E8"/>
<path d="M283.183 232.378C286.301 232.378 288.829 229.85 288.829 226.732C288.829 223.615 286.301 221.087 283.183 221.087C280.066 221.087 277.538 223.615 277.538 226.732C277.538 229.85 280.066 232.378 283.183 232.378Z" fill="#6161E8"/>
</g>
<defs>
<clipPath id="clip0_129_54">
<rect width="555" height="412.252" fill="white"/>
</clipPath>
</defs>
</svg>
