<svg width="169" height="44" viewBox="0 0 169 44" fill="none" xmlns="http://www.w3.org/2000/svg">
<g clip-path="url(#clip0_124_103)">
<path d="M54.3081 33.8905L56.396 29.0413C58.6522 30.7251 61.6493 31.6006 64.6127 31.6006C66.8016 31.6006 68.1823 30.7588 68.1823 29.4791C68.1486 25.9095 55.0826 28.7046 54.9816 19.7469C54.9479 15.2008 58.989 11.6986 64.7138 11.6986C68.115 11.6986 71.5162 12.5404 73.9408 14.4599L71.9876 19.4102C69.765 17.9958 67.0037 16.9856 64.377 16.9856C62.5922 16.9856 61.4136 17.8275 61.4136 18.9051C61.4473 22.4073 74.6143 20.4878 74.749 29.0413C74.749 33.6885 70.809 36.955 65.1515 36.955C61.0095 36.955 57.2042 35.9784 54.3081 33.8905ZM134.422 27.2902C133.378 29.1087 131.424 30.3546 129.168 30.3546C125.834 30.3546 123.14 27.6606 123.14 24.3268C123.14 20.9929 125.834 18.2989 129.168 18.2989C131.424 18.2989 133.378 19.5449 134.422 21.3634L140.18 18.1642C138.025 14.3252 133.883 11.6986 129.168 11.6986C122.197 11.6986 116.54 17.356 116.54 24.3268C116.54 31.2976 122.197 36.955 129.168 36.955C133.916 36.955 138.025 34.362 140.18 30.4893L134.422 27.2902ZM77.6451 1.22556H84.8516V36.4835H77.6451V1.22556ZM143.009 1.22556V36.4835H150.215V25.9095L158.769 36.4835H167.996L157.119 23.9227L167.188 12.2037H158.365L150.215 21.9358V1.22556H143.009ZM106.269 27.3575C105.225 29.075 103.07 30.3546 100.645 30.3546C97.3114 30.3546 94.6174 27.6606 94.6174 24.3268C94.6174 20.9929 97.3114 18.2989 100.645 18.2989C103.07 18.2989 105.225 19.6459 106.269 21.397V27.3575ZM106.269 12.2037V15.0661C105.09 13.0792 102.161 11.6986 99.0962 11.6986C92.7652 11.6986 87.7813 17.2887 87.7813 24.2931C87.7813 31.2976 92.7652 36.955 99.0962 36.955C102.161 36.955 105.09 35.5743 106.269 33.5875V36.4499H113.476V12.2037H106.269Z" fill="#999999"/>
<path d="M9.75599 27.3239C9.75599 29.7821 7.76915 31.769 5.31086 31.769C2.85256 31.769 0.865723 29.7821 0.865723 27.3239C0.865723 24.8656 2.85256 22.8787 5.31086 22.8787H9.75599V27.3239ZM11.9786 27.3239C11.9786 24.8656 13.9654 22.8787 16.4237 22.8787C18.882 22.8787 20.8688 24.8656 20.8688 27.3239V38.4367C20.8688 40.895 18.882 42.8818 16.4237 42.8818C13.9654 42.8818 11.9786 40.895 11.9786 38.4367V27.3239Z" fill="#999999"/>
<path d="M16.4237 9.47596C13.9654 9.47596 11.9785 7.48912 11.9785 5.03083C11.9785 2.57253 13.9654 0.585693 16.4237 0.585693C18.882 0.585693 20.8688 2.57253 20.8688 5.03083V9.47596H16.4237ZM16.4237 11.7322C18.882 11.7322 20.8688 13.719 20.8688 16.1773C20.8688 18.6356 18.882 20.6225 16.4237 20.6225H5.27716C2.81887 20.6225 0.832031 18.6356 0.832031 16.1773C0.832031 13.719 2.81887 11.7322 5.27716 11.7322H16.4237Z" fill="#999999"/>
<path d="M34.2378 16.1773C34.2378 13.719 36.2247 11.7322 38.683 11.7322C41.1413 11.7322 43.1281 13.719 43.1281 16.1773C43.1281 18.6356 41.1413 20.6225 38.683 20.6225H34.2378V16.1773ZM32.0153 16.1773C32.0153 18.6356 30.0284 20.6225 27.5701 20.6225C25.1118 20.6225 23.125 18.6356 23.125 16.1773V5.03083C23.125 2.57253 25.1118 0.585693 27.5701 0.585693C30.0284 0.585693 32.0153 2.57253 32.0153 5.03083V16.1773Z" fill="#999999"/>
<path d="M27.5701 33.9916C30.0284 33.9916 32.0153 35.9784 32.0153 38.4367C32.0153 40.895 30.0284 42.8818 27.5701 42.8818C25.1118 42.8818 23.125 40.895 23.125 38.4367V33.9916H27.5701ZM27.5701 31.769C25.1118 31.769 23.125 29.7821 23.125 27.3239C23.125 24.8656 25.1118 22.8787 27.5701 22.8787H38.7166C41.1749 22.8787 43.1618 24.8656 43.1618 27.3239C43.1618 29.7821 41.1749 31.769 38.7166 31.769H27.5701Z" fill="#999999"/>
</g>
<defs>
<clipPath id="clip0_124_103">
<rect width="167.703" height="42.7676" fill="white" transform="translate(0.59668 0.383789)"/>
</clipPath>
</defs>
</svg>
