<svg width="917" height="952" viewBox="0 0 917 952" fill="none" xmlns="http://www.w3.org/2000/svg">
<path d="M823.585 534.082C840.211 571.297 853.179 616.332 862.489 669.187C871.8 722.042 858.049 764.324 821.236 796.034C784.424 827.744 734.545 825.412 671.599 789.039C608.653 752.665 562.857 731.522 534.209 725.612C505.561 719.701 467.163 746.37 419.015 805.621C370.867 864.871 332.947 874.583 305.256 834.756C277.565 794.929 255.401 757.036 238.763 721.078C222.126 685.119 221.163 647.103 235.872 607.027C250.582 566.952 236.523 534.472 193.695 509.587C150.867 484.702 140.679 456.969 163.131 426.386C185.583 395.804 193.093 358.492 185.66 314.449C178.228 270.406 185.445 229.321 207.313 191.195C229.18 153.069 263.603 133.274 310.58 131.811C357.558 130.347 400.375 120.051 439.032 100.923C477.688 81.794 509.468 102.182 534.37 162.088C559.272 221.993 591.338 246.782 630.568 236.454C669.797 226.125 710.891 226.18 753.848 236.617C796.806 247.054 820.058 272.705 823.605 313.572C827.153 354.439 823.88 392.104 813.786 426.566C803.693 461.029 806.959 496.867 823.585 534.082Z" fill="url(#paint0_linear_130_246)"/>
<defs>
<linearGradient id="paint0_linear_130_246" x1="154.826" y1="91.187" x2="147.959" y2="857.018" gradientUnits="userSpaceOnUse">
<stop stop-color="#FF5F6D"/>
<stop offset="1" stop-color="#FFC371"/>
</linearGradient>
</defs>
</svg>
